<?xml version="1.0" encoding="UTF-8"?>
<svg width="40px" height="40px" viewBox="0 0 40 40" version="1.1" xmlns="http://www.w3.org/2000/svg" xmlns:xlink="http://www.w3.org/1999/xlink">
    <title>icon_present</title>
    <defs>
        <path d="M29.2196576,9.17240445 C29.6582783,9.17240445 29.9955197,9.08447343 30.2303473,8.90757684 C30.4594823,8.73893396 30.6316446,8.50433115 30.7237956,8.23516307 C30.816899,7.96309409 30.8644852,7.65792169 30.8644852,7.31757685 C30.8644852,6.97826652 30.848968,6.65861134 30.8179335,6.35964581 C30.7548301,6.0606803 30.6834507,5.7420596 30.6058645,5.40171479 C30.5388686,5.08800317 30.4113137,4.79037504 30.2303473,4.52550787 C30.0674253,4.28759687 29.8261578,4.11442614 29.5486232,4.03619755 C29.2672438,3.95550789 28.9227611,4.00930099 28.5151749,4.19964581 C27.9871099,4.47312778 27.4546255,4.7379905 26.9179335,4.99412856 C26.3231059,5.27964581 25.7355197,5.56516305 25.1562094,5.85068029 C24.6255288,6.11217379 24.0931031,6.37011062 23.558968,6.62447341 C23.0727611,6.85619756 22.7210369,7.03930101 22.5017266,7.17481823 C22.1572438,7.36516305 21.906899,7.57619753 21.7496576,7.80688721 C21.5934507,8.03757685 21.5303473,8.25481823 21.5624163,8.45861135 C21.5934507,8.66240446 21.7186231,8.83309411 21.9379335,8.96861134 C22.1572439,9.10412856 22.4862094,9.17240445 22.9248301,9.17240445 L29.2196576,9.17240445 L29.2196576,9.17240445 Z M17.0800024,9.17240445 L10.7851749,9.17240445 C10.3465542,9.17240445 10.0093128,9.08447343 9.7744852,8.90757684 C9.54535024,8.73893396 9.37318786,8.50433115 9.28103692,8.23516307 C9.18332298,7.93928096 9.13577079,7.62914272 9.14034728,7.31757685 C9.14034728,6.97826652 9.15586452,6.65861134 9.186899,6.35964581 C9.25000244,6.0606803 9.32138175,5.7420596 9.39896796,5.40171479 C9.47655416,5.06240446 9.60276107,4.77068032 9.7744852,4.52550787 C9.93740718,4.28759687 10.1786747,4.11442614 10.4562093,4.03619755 C10.7375887,3.95550789 11.0820714,4.00930099 11.4896576,4.19964581 C11.9593128,4.44378375 12.4920714,4.7096458 13.086899,4.99412856 C13.6817266,5.27964581 14.2693128,5.56516305 14.8486231,5.85068029 C15.4279335,6.13619753 15.9606921,6.39378374 16.4458645,6.62447341 C16.9320714,6.85619756 17.2837956,7.03930101 17.5031059,7.17481823 C17.8475887,7.36516305 18.0979335,7.57619753 18.2551749,7.80688721 C18.4113818,8.03757685 18.4744852,8.25481823 18.4424162,8.45861135 C18.4113818,8.66240446 18.2862094,8.83309411 18.066899,8.96861134 C17.8475886,9.10412856 17.5196576,9.17240445 17.0800024,9.17240445 Z M6.9782783,11.2413699 C6.15172658,11.2413699 5.61586451,11.36137 5.37069209,11.6013699 C5.12551968,11.84137 5.00241625,12.2241286 5.00241625,12.7496458 L5.00241625,15.7682665 C5.00241625,16.339301 5.1379335,16.7624044 5.40896797,17.0365424 C5.68000245,17.3106803 6.21586453,17.4482665 7.01758865,17.4482665 L18.4506921,17.4482665 L18.4506921,11.2413699 L6.9782783,11.2413699 Z M33.0844852,11.2413699 C33.8293128,11.2413699 34.3341404,11.3841286 34.6010369,11.6696458 C34.868968,11.9561975 35.0024162,12.3617148 35.0024162,12.887232 L35.0024162,15.8365424 C35.0024162,16.3848182 34.8803473,16.79137 34.6362094,17.0541286 C34.3920714,17.3168872 33.9100025,17.4482665 33.188968,17.4482665 L21.5541404,17.4482665 L21.5541404,11.2413699 L33.0844852,11.2413699 L33.0844852,11.2413699 Z M33.9679335,30.9017148 C33.9420714,32.1886114 33.8334508,33.1734389 33.101037,33.917232 C32.3675887,34.6620596 31.2027611,35.0344734 29.6055197,35.0344734 L21.5541404,35.0344734 L21.5541404,20.3126702 L32.9679335,20.3126702 C33.5202182,20.3126702 33.9679335,20.7603854 33.9679335,21.3126702 L33.9679335,30.9017148 L33.9679335,30.9017148 Z M6.036899,21.3015652 L6.036899,30.9017148 L6.036899,30.9017148 C6.06276106,32.1886114 6.17138175,33.1734389 6.90379554,33.917232 C7.63724381,34.6620596 8.80207141,35.0344734 10.3993128,35.0344734 L18.4506921,35.0344734 L18.4506921,20.3015652 L7.036899,20.3015652 C6.48461425,20.3015652 6.036899,20.7492804 6.036899,21.3015652 Z" id="path-1"></path>
        <filter x="-10.0%" y="-9.7%" width="120.0%" height="119.3%" filterUnits="objectBoundingBox" id="filter-2">
            <feOffset dx="0" dy="0" in="SourceAlpha" result="shadowOffsetOuter1"></feOffset>
            <feGaussianBlur stdDeviation="1" in="shadowOffsetOuter1" result="shadowBlurOuter1"></feGaussianBlur>
            <feColorMatrix values="0 0 0 0 0.0668253807   0 0 0 0 0.0789634513   0 0 0 0 0.119423687  0 0 0 0.3 0" type="matrix" in="shadowBlurOuter1"></feColorMatrix>
        </filter>
    </defs>
    <g id="icon_present" stroke="none" stroke-width="1" fill="none" fill-rule="evenodd">
        <g id="形状">
            <use fill="black" fill-opacity="1" filter="url(#filter-2)" xlink:href="#path-1"></use>
            <use fill="#FFFFFF" fill-rule="evenodd" xlink:href="#path-1"></use>
        </g>
    </g>
</svg>