<?xml version="1.0" standalone="no"?><!DOCTYPE svg PUBLIC "-//W3C//DTD SVG 1.1//EN" "http://www.w3.org/Graphics/SVG/1.1/DTD/svg11.dtd"><svg t="1620107898461" class="icon" viewBox="0 0 1024 1024" version="1.1" xmlns="http://www.w3.org/2000/svg" p-id="2660" xmlns:xlink="http://www.w3.org/1999/xlink" width="72" height="72"><defs><style type="text/css"></style></defs><path d="M927.45129395 853.6083374L847.18463135 933.875 743.46929932 830.15966797c-67.1234436 48.35083008-149.27371216 77.15698242-238.32476807 77.15698242-225.6578064 0-408.5958252-182.9380188-408.59582519-408.5958252C96.54870605 273.06219482 279.48672485 90.125 505.14453125 90.125c225.65863037 0 408.5958252 182.93719482 408.5958252 408.5958252 0 95.63378906-33.11883545 183.41345214-88.1652832 253.03436279l101.8762207 101.85314941zM505.14453125 180.92370605c-175.51483154 0-317.79629516 142.2822876-317.79629516 317.79711914S329.62969971 816.51629638 505.14453125 816.51629638c175.51483154 0 317.79711914-142.2822876 317.79711914-317.79629516 0-175.51483154-142.2822876-317.79711914-317.79711914-317.79711914z" p-id="2661" fill="#ffffff"></path></svg>