<?xml version="1.0" encoding="UTF-8"?>
<svg width="40px" height="40px" viewBox="0 0 40 40" version="1.1" xmlns="http://www.w3.org/2000/svg" xmlns:xlink="http://www.w3.org/1999/xlink">
    <title>icon_favorite</title>
    <defs>
        <path d="M29.1295311,37.6311888 C28.6263844,37.6311888 28.0538381,37.4923897 27.5333415,37.2147915 L20.0034903,33.4498659 L12.4215895,37.2147915 C11.9357926,37.4750398 11.3979461,37.6138389 10.8253998,37.6138389 C10.0967045,37.6138389 9.38535915,37.3882903 8.81281286,36.9545431 C7.75446972,36.1564483 7.21662321,34.7858072 7.45952164,33.5192654 L9.00366162,25.4862675 L3.05265021,19.9516534 C2.13310617,19.0147595 1.78610842,17.6788181 2.13310617,16.4122763 L2.15045606,16.3775766 C2.58420324,15.076335 3.65989627,14.1741408 4.96113783,14.000642 L13.2196843,12.4912017 L16.9152103,4.96135057 C17.5051065,3.76420833 18.7195986,3.00081328 20.0034903,3.00081328 C21.3394316,3.00081328 22.5886235,3.7989081 23.1091202,4.97870045 L26.8046462,12.4912017 L35.0631927,13.9312424 C36.3644342,14.1220912 37.4574772,15.0589851 37.8218248,16.3428768 C38.2382221,17.5920687 37.8912243,18.9627098 36.9543304,19.8996037 L36.9369805,19.9169536 L31.0206689,25.5036174 L32.5127592,33.5539652 C32.7556576,34.8378569 32.235161,36.1390984 31.1768179,36.9545431 C30.5695718,37.3882903 29.8582264,37.6311888 29.1295311,37.6311888 Z" id="path-1"></path>
        <filter x="-8.3%" y="-8.7%" width="116.7%" height="117.3%" filterUnits="objectBoundingBox" id="filter-2">
            <feOffset dx="0" dy="0" in="SourceAlpha" result="shadowOffsetOuter1"></feOffset>
            <feGaussianBlur stdDeviation="1" in="shadowOffsetOuter1" result="shadowBlurOuter1"></feGaussianBlur>
            <feColorMatrix values="0 0 0 0 0.0668253807   0 0 0 0 0.0789634513   0 0 0 0 0.119423687  0 0 0 0.3 0" type="matrix" in="shadowBlurOuter1"></feColorMatrix>
        </filter>
    </defs>
    <g id="icon_favorite" stroke="none" stroke-width="1" fill="none" fill-rule="evenodd">
        <g id="路径">
            <use fill="black" fill-opacity="1" filter="url(#filter-2)" xlink:href="#path-1"></use>
            <use fill="#FFFFFF" fill-rule="evenodd" xlink:href="#path-1"></use>
        </g>
    </g>
</svg>