<?xml version="1.0" encoding="UTF-8"?>
<svg width="40px" height="40px" viewBox="0 0 40 40" version="1.1" xmlns="http://www.w3.org/2000/svg" xmlns:xlink="http://www.w3.org/1999/xlink">
    <title>icon_comments</title>
    <defs>
        <path d="M6.06360626,27.8753344 C4.75071642,25.5531515 4.00139968,22.8702125 4.00139968,20.0122613 C4.00139968,11.1757053 11.1648437,4.01226125 20.0013997,4.01226125 C28.8379556,4.01226125 36.0013997,11.1757053 36.0013997,20.0122613 C36.0013997,28.8488173 28.8379556,36.0122613 20.0013997,36.0122613 C17.418136,36.0122613 14.9778593,35.4000614 12.8177385,34.3128304 L6.80286328,35.4689036 C5.41349313,35.7359437 4.53344854,34.8327079 4.83719948,33.4516029 L6.06360626,27.8753344 Z M12.6413997,22.5722612 C13.8785175,22.5722612 14.8813997,21.5693791 14.8813997,20.3322612 C14.8813997,19.0951434 13.8785175,18.0922612 12.6413997,18.0922612 C11.4042819,18.0922612 10.4013997,19.0951434 10.4013997,20.3322612 C10.4013997,21.5693791 11.4042819,22.5722612 12.6413997,22.5722612 Z M20.3213997,22.5722612 C21.5585175,22.5722612 22.5613997,21.5693791 22.5613997,20.3322612 C22.5613997,19.0951434 21.5585175,18.0922612 20.3213997,18.0922612 C19.0842819,18.0922612 18.0813997,19.0951434 18.0813997,20.3322612 C18.0813997,21.5693791 19.0842819,22.5722612 20.3213997,22.5722612 Z M28.0013997,22.5722612 C29.2385175,22.5722612 30.2413997,21.5693791 30.2413997,20.3322612 C30.2413997,19.0951434 29.2385175,18.0922612 28.0013997,18.0922612 C26.7642819,18.0922612 25.7613997,19.0951434 25.7613997,20.3322612 C25.7613997,21.5693791 26.7642819,22.5722612 28.0013997,22.5722612 Z" id="path-1"></path>
        <filter x="-9.4%" y="-9.4%" width="118.8%" height="118.8%" filterUnits="objectBoundingBox" id="filter-2">
            <feOffset dx="0" dy="0" in="SourceAlpha" result="shadowOffsetOuter1"></feOffset>
            <feGaussianBlur stdDeviation="1" in="shadowOffsetOuter1" result="shadowBlurOuter1"></feGaussianBlur>
            <feColorMatrix values="0 0 0 0 0.0668253807   0 0 0 0 0.0789634513   0 0 0 0 0.119423687  0 0 0 0.3 0" type="matrix" in="shadowBlurOuter1"></feColorMatrix>
        </filter>
    </defs>
    <g id="icon_comments" stroke="none" stroke-width="1" fill="none" fill-rule="evenodd">
        <g id="形状">
            <use fill="black" fill-opacity="1" filter="url(#filter-2)" xlink:href="#path-1"></use>
            <use fill="#FFFFFF" fill-rule="evenodd" xlink:href="#path-1"></use>
        </g>
    </g>
</svg>